<mxfile host="app.diagrams.net" modified="2023-06-29T09:19:24.454Z" agent="Mozilla/5.0 (Windows NT 10.0; Win64; x64) AppleWebKit/537.36 (KHTML, like Gecko) Chrome/114.0.0.0 Safari/537.36" version="21.5.2" etag="lh4dSr4ddCBHuh-5juQx" type="github">
  <diagram name="第 1 页" id="JXErhg1aevziq1OyJQYs">
    <mxGraphModel>
      <root>
        <mxCell id="0" />
        <mxCell id="1" parent="0" />
      </root>
    </mxGraphModel>
  </diagram>
</mxfile>
